<?xml version="1.0" encoding="UTF-8" standalone="no"?>
<!-- Created with Inkscape (http://www.inkscape.org/) -->

<svg
   version="1.1"
   id="svg1"
   width="560.33862"
   height="467.42468"
   viewBox="0 0 560.33862 467.42468"
   xmlns="http://www.w3.org/2000/svg"
   xmlns:svg="http://www.w3.org/2000/svg">
  <defs id="defs1">
    <linearGradient id="logoGradient" x1="0%" y1="0%" x2="100%" y2="100%">
      <stop offset="0%"   stop-color="#ff2da0" />
      <stop offset="50%"  stop-color="#c026d3" />
      <stop offset="100%" stop-color="#818cf8" />
    </linearGradient>
  </defs>
  <g
     id="g1"
     transform="translate(-18.031561,-23.239933)">
    <path
       fill="url(#logoGradient)"
       d="m 277.20531,490.38619 c -13.68383,-1.93789 -30.7106,-5.19286 -39.33334,-7.51927 -45.179,-12.18925 -86.70358,-39.15683 -119.18973,-77.40615 -3.58768,-4.22415 -6.28768,-7.88125 -6,-8.12688 0.28768,-0.24563 2.11816,-0.82866 4.06773,-1.29562 3.1752,-0.76052 4.47926,0.25848 12.51148,9.77664 28.17397,33.38608 70.82684,59.71364 114.61052,70.74356 21.82619,5.49842 37.4461,7.0465 63.68868,6.31217 18.67335,-0.52253 25.97138,-1.32888 38.95658,-4.30426 48.2241,-11.04989 89.1405,-35.42335 121.38924,-72.31023 36.97194,-42.2894 57.42634,-97.71957 56.45487,-152.98923 -0.26716,-15.19912 -0.14942,-15.97002 2.62825,-17.20945 1.59936,-0.71366 3.23692,-0.96857 3.63901,-0.56648 1.75245,1.75245 2.14897,26.01463 0.65178,39.88072 -4.27618,39.60336 -14.71862,71.67528 -33.799,103.80711 -17.81131,29.99468 -48.9506,61.067 -78.89543,78.72577 -37.33109,22.01451 -71.70717,31.78759 -114.71397,32.61303 -12.46667,0.23928 -24.46667,0.18013 -26.66667,-0.13143 z m -1.33333,-19.51294 c -33.81544,-3.0618 -74.50037,-19.05478 -103.05426,-40.50995 -10.92046,-8.20555 -35.62766,-31.47592 -37.87208,-35.66966 -2.18242,-4.07789 1.25758,-1.30428 10.08155,8.12858 22.72894,24.2973 55.30353,45.22761 86.78363,55.76152 46.64202,15.60738 97.08723,14.70178 141.74384,-2.54462 42.21524,-16.30354 79.4925,-47.13363 103.84513,-85.88495 20.54492,-32.69226 32.47219,-72.76836 32.47219,-109.10785 0,-9.245 0.52241,-15.20084 1.33333,-15.20084 1.99678,0 1.63201,21.60262 -0.65738,38.93171 -13.09541,99.12311 -91.60254,175.72736 -191.03451,186.40414 -14.40631,1.54692 -23.89401,1.47994 -43.64144,-0.30808 z M 288.121,454.84549 c -1.24336,-0.91667 -3.41534,-5.71546 -4.82663,-10.66398 -1.41128,-4.94853 -3.89232,-11.65307 -5.51341,-14.89899 l -2.94744,-5.90168 3.40517,-5.81046 c 3.33352,-5.68823 3.38945,-6.2071 2.65882,-24.66342 -0.72153,-18.22645 -0.61805,-19.2392 3.11407,-30.47672 2.34599,-7.06386 4.90651,-12.29969 6.52706,-13.34676 3.32796,-2.15024 23.28365,-9.06546 24.02408,-8.32503 1.07388,1.07388 -3.19525,12.6454 -9.29968,25.20683 -3.41758,7.03255 -7.37851,17.23255 -8.80206,22.66666 -3.46865,13.24089 -5.8442,41.70955 -4.42209,52.99465 0.61585,4.88706 1.0858,9.90573 1.04433,11.1526 -0.0415,1.24687 0.41903,1.96146 1.02334,1.58798 0.60431,-0.37348 1.09875,-0.0437 1.09875,0.73296 0,1.93443 -4.32598,1.77894 -7.08431,-0.25464 z M 37.871963,394.75508 c -18.50321,-4.33631 -23.61212,-11.92086 -17.20758,-25.54593 7.74036,-16.46691 36.09692,-39.22878 85.874247,-68.93144 14.72429,-8.78614 54.49185,-30.43223 55.90921,-30.43223 0.4166,0 0.75746,2.25103 0.75746,5.00229 0,4.60822 -0.49764,5.2647 -6.31703,8.33334 -3.47437,1.83207 -12.95635,7.56767 -21.07107,12.74578 -50.683332,32.34168 -71.817717,56.16732 -60.162022,67.82302 10.67174,10.67174 57.414302,9.26364 112.216792,-3.38049 32.33634,-7.4607 90.84628,-25.28332 122.66667,-37.36531 114.75067,-43.57007 206.1085,-98.51009 211.99732,-127.48919 0.7395,-3.63907 0.26093,-4.94966 -2.99706,-8.20764 -5.17438,-5.17438 -11.4368,-6.83062 -29.24804,-7.73532 -16.5641,-0.84134 -35.52899,0.86935 -63.29368,5.70929 l -18.20813,3.17404 -9.79187,-2.5182 c -5.38553,-1.38501 -8.89187,-2.8413 -7.79187,-3.2362 2.35396,-0.84507 31.26228,-7.79969 44.66667,-10.74568 53.43093,-11.74294 108.55897,-16.54082 126.51983,-11.01122 10.08287,3.10421 13.62478,5.48557 15.29803,10.28548 2.86688,8.22393 -3.31088,19.39863 -18.83849,34.07619 -39.54706,37.38209 -133.71818,88.66236 -230.31271,125.4153 -45.82543,17.43596 -126.31116,42.90493 -154.99958,49.04819 -4.58357,0.98151 -16.13376,3.60097 -25.66709,5.82101 -9.53334,2.22004 -26.03334,5.34271 -36.66667,6.93925 -23.948492,3.59575 -62.495147,4.76565 -73.333337,2.22567 z M 199.2053,376.92295 c 8.43333,-2.52826 21.33333,-5.45999 28.66667,-6.51496 10.27085,-1.47757 15.78332,-3.11751 24,-7.13991 8.48834,-4.15538 29.42301,-12.08926 31.89922,-12.08926 0.28035,0 -0.57104,2.85 -1.89199,6.33333 -3.06389,8.07946 -10.85086,13.653 -25.78729,18.4573 -11.21274,3.60658 -14.78607,3.94204 -53.55328,5.02761 l -18.66666,0.52271 z m 135.00001,3.92412 c -24.38393,-0.35233 -30.82428,-1.24877 -25.00763,-3.48083 4.37507,-1.67887 7.33082,-9.19923 7.33598,-18.66505 0.004,-6.55638 0.82616,-10.93429 2.90658,-15.46917 2.65567,-5.78881 3.64449,-6.61462 11.66667,-9.74331 l 8.76507,-3.41843 0.84415,15.02999 c 0.98653,17.5651 2.51617,20.84989 11.26523,24.19119 9.06576,3.46224 28.24828,2.12218 37.60282,-2.62688 10.85843,-5.51254 16.98939,-12.45401 20.21028,-22.88203 4.11355,-13.31812 3.47965,-26.67246 -1.87637,-39.52948 -0.75247,-1.80629 0.97951,-3.22628 8.6412,-7.08465 11.19431,-5.63737 11.9002,-5.38027 17.68929,6.4426 12.64137,25.81704 3.37783,56.19718 -20.8846,68.49189 -11.75748,5.95796 -31.99552,10.11754 -45.92182,9.43844 -3.43027,-0.16728 -18.38685,-0.4797 -33.23685,-0.69428 z M 96.893378,366.21589 c -3.89277,-0.48405 -4.76764,-1.4965 -9,-10.41535 -5.35731,-11.28944 -5.57484,-12.73925 -2.34937,-15.65826 2.19194,-1.98367 2.77104,-1.20173 9.2279,12.46002 3.78905,8.01708 6.786632,14.4805 6.661292,14.36313 -0.12535,-0.11736 -2.168262,-0.45465 -4.539822,-0.74954 z m 14.615422,-6.45112 c -4.30587,-7.49668 -13.636832,-28.1295 -13.636832,-30.15406 0,-2.88818 2.319032,-0.56566 3.895572,3.90144 0.97054,2.75 4.98812,11.45 8.92796,19.33333 7.5399,15.08678 8.0636,19.54234 0.8133,6.91929 z m 55.59403,-76.77474 c -0.0743,-56.43705 -0.54229,-79.27624 -1.70363,-83.14455 -1.1209,-3.73362 -3.07708,-6.29194 -6.52178,-8.52928 -2.70635,-1.75777 -4.67946,-3.58616 -4.3847,-4.0631 0.29477,-0.47694 20.22568,-0.8185 44.29093,-0.75901 45.42905,0.11228 52.64882,0.84414 66.84585,6.77604 l 4.58509,1.91576 -0.91796,6.91986 c -0.50488,3.80593 -1.21944,7.40767 -1.58791,8.00387 -0.36848,0.59621 -3.18248,-0.38011 -6.25335,-2.16958 -3.07087,-1.78948 -10.3834,-4.89361 -16.25007,-6.89809 -9.27468,-3.16889 -12.84165,-3.65876 -27.33333,-3.75381 -19.3134,-0.12669 -23.63273,0.75108 -25.30209,5.14182 -0.66427,1.74717 -1.2155,28.88041 -1.22495,60.29609 -0.009,31.41569 -0.0447,64.99664 -0.0784,74.62434 l -0.0612,17.50491 -3.66667,1.39422 c -2.01666,0.76683 -6.06666,1.78059 -9,2.2528 -2.93333,0.47221 -6.68333,1.18264 -8.33333,1.57874 l -3,0.72018 z m 120.34056,35.53811 c 0.13109,-4.75787 0.46909,-8.41994 0.7511,-8.13792 0.28201,0.28201 1.35411,3.7022 2.38244,7.60042 1.4562,5.52018 1.51128,7.31542 0.24904,8.1175 -3.15809,2.00679 -3.61831,0.9755 -3.38258,-7.58 z m 7.28636,4.9122 c -0.2993,-0.5105 -0.96973,-3.02819 -1.48985,-5.59486 -1.54859,-7.64196 -6.27282,-23.05956 -8.29709,-27.0777 -1.03749,-2.0594 -3.06534,-8.35418 -4.50633,-13.9884 -3.26465,-12.76467 -1.95026,-21.10948 4.8178,-30.58728 14.09124,-19.73297 15.28434,-21.93569 15.28527,-28.22 6.5e-4,-4.45812 -1.35338,-8.75919 -4.97193,-15.79329 -2.73506,-5.31666 -5.28546,-9.66047 -5.66757,-9.6529 -0.38211,0.008 -2.99611,8.25757 -5.8089,18.33334 -3.48661,12.48949 -7.82185,23.83578 -13.6224,35.6529 -4.67955,9.53333 -9.50901,20.7792 -10.73216,24.99082 -1.22314,4.21162 -3.06059,8.71162 -4.08323,10 -1.69303,2.13298 -1.84322,1.98473 -1.67908,-1.65749 0.27878,-6.18637 0.0643,-6.56409 -2.44018,-4.29756 -1.28583,1.16366 -3.51791,5.15665 -4.96019,8.87332 -3.29749,8.49745 -5.15018,8.69718 -3.93524,0.42424 1.33949,-9.1211 2.73579,-12.16205 8.41179,-18.31978 3.9882,-4.32669 5.68289,-7.85422 8.04572,-16.74738 3.80879,-14.33544 6.27136,-21.75647 8.9178,-26.87413 3.35052,-6.47917 5.55983,-15.31655 7.76458,-31.05871 3.11393,-22.23388 3.77123,-23.85204 12.22569,-30.09771 4.03552,-2.98122 7.8188,-6.72882 8.40729,-8.32801 2.12762,-5.78175 2.91144,-10.47105 1.61646,-9.67071 -0.70631,0.43652 -1.67328,2.5652 -2.14884,4.7304 -0.49531,2.25513 -2.89646,5.52344 -5.62128,7.65137 -2.61615,2.04306 -8.00147,7.00443 -11.96738,11.02525 l -7.21076,7.3106 -9.60389,0.48205 c -6.04011,0.30318 -12.68811,-0.31829 -17.91545,-1.67479 -4.57137,-1.18626 -9.97137,-1.79443 -12,-1.35147 -2.8973,0.63263 -3.25945,0.48937 -1.68843,-0.66791 1.32201,-0.97385 6.7459,-1.22067 16,-0.7281 12.37813,0.65887 14.61785,0.429 19.33333,-1.98417 3.35658,-1.71775 4.09787,-2.44471 2,-1.96137 -9.80669,2.25945 -14.84138,2.13791 -23.76911,-0.57381 -5.12134,-1.55556 -10.67895,-2.82829 -12.35024,-2.82829 -4.59609,0 -14.31522,5.16825 -15.24842,8.10851 -0.45332,1.42828 -1.3581,2.26693 -2.01061,1.86365 -1.73865,-1.07454 0.99264,-7.38996 5.02332,-11.61515 5.72243,-5.99859 13.43651,-8.18501 26.05763,-7.38557 10.94047,0.69299 10.94973,0.69081 4.29743,-1.01048 -13.87212,-3.54772 -27.52434,-1.8042 -36.62725,4.67765 -4.74522,3.37889 -9.49832,3.4335 -13.54631,0.15563 l -3.13565,-2.53909 6.01714,0.67821 c 5.64562,0.63635 6.37298,0.33289 11.78039,-4.91483 8.07289,-7.83447 12.51319,-9.33951 27.80219,-9.42356 l 13.04282,-0.0717 -8,-2.57532 c -9.65003,-3.1065 -16.46978,-3.28975 -22.87232,-0.6146 -5.659,2.36448 -6.22095,2.43561 -5.1159,0.64761 0.4597,-0.74381 3.29982,-2.60943 6.31138,-4.14581 4.42904,-2.25953 6.8964,-2.63754 12.90954,-1.97783 21.04456,2.30883 24.67699,2.28326 30.04081,-0.21143 l 5.27351,-2.45268 -10.60684,-0.0198 c -5.83377,-0.0108 -14.50684,-1.02555 -19.27351,-2.25487 l -8.66667,-2.23515 7.66667,0.65831 c 4.21667,0.36207 10.87867,1.0253 14.80446,1.47386 8.97469,1.02544 16.17401,-1.91501 25.95295,-10.6001 9.25108,-8.21627 13.47355,-10.21546 21.57593,-10.21546 7.747,0 13.18786,2.36605 17.21561,7.48651 2.37474,3.01899 2.77497,5.32786 2.72035,15.6933 -0.0997,18.91217 -3.43046,23.6128 -14.26929,20.13769 -2.75241,-0.88247 -3,-0.54502 -3,4.08888 0,4.24546 0.95662,5.96734 6,10.79975 3.3,3.16195 6,6.15814 6,6.6582 0,0.50005 3.6,4.65822 8,9.24036 8.24432,8.5856 9.62666,12.36451 6.59512,18.02901 -2.8543,5.33329 -5.18757,31.51699 -4.98821,55.97711 0.15819,19.40967 -0.30906,26.86114 -2.22959,35.55586 -2.41031,10.91209 -4.66215,14.37893 -4.76328,7.33334 -0.0643,-4.47844 -13.15406,-43.50813 -13.22808,-39.44207 -0.0289,1.5902 1.98219,9.3902 4.46919,17.33334 4.60834,14.71836 8.1499,32.70567 7.28896,37.01994 -0.33176,1.66248 -4.23027,3.74822 -12.77647,6.83551 -6.76446,2.44364 -12.5439,4.02531 -12.8432,3.5148 z m 25.03318,-122.40418 c 3.7441,-1.43675 2.24214,-2.67075 -2.5673,-2.10927 -2.89826,0.33835 -5.9401,-0.28211 -8,-1.63181 -1.82801,-1.19776 -3.32365,-1.70288 -3.32365,-1.12249 0,1.51236 6.9223,5.59538 9.55761,5.63741 1.22336,0.0195 3.17336,-0.32871 4.33334,-0.77384 z m -48.72622,-44.43378 c 4.39017,-2.34955 2.87645,-2.92252 -3.23972,-1.22628 -2.89678,0.80338 -10.34827,1.17896 -16.59169,0.83626 -10.81452,-0.59359 -11.08919,-0.54095 -6,1.14985 6.23756,2.07233 21.37124,1.62717 25.83141,-0.75983 z m 14.59485,-16.0542 c 11.06094,-5.65561 11.16239,-7.00774 0.20164,-2.68742 -3.74229,1.47508 -6.43334,2.08195 -5.98011,1.34861 0.47702,-0.77184 -0.0441,-1.00019 -1.23754,-0.54224 -1.13387,0.43511 -1.77179,1.26002 -1.41758,1.83314 0.35421,0.57312 -0.39924,1.40881 -1.67432,1.85708 -1.27509,0.44828 -4.41834,1.72264 -6.98502,2.83192 l -4.66666,2.01686 5.75959,-0.71094 c 3.16777,-0.39102 10.36777,-3.06717 16,-5.94701 z m 12.30469,-8.04538 c 10.98634,-2.79817 19.93573,-7.01246 19.93573,-9.38777 0,-0.64879 -1.95,-0.0396 -4.33334,1.35384 -2.38333,1.39341 -8.40708,3.47005 -13.38611,4.61476 -9.4293,2.16785 -16.13074,5.02873 -17.69024,7.55206 -0.65374,1.05776 -0.18735,1.08795 1.64639,0.10656 1.40718,-0.7531 7.62959,-2.66085 13.82757,-4.23945 z m -1.39761,-11.99065 c 1.72359,-1.11387 1.68839,-1.29533 -0.25464,-1.31292 -1.24005,-0.0112 -2.62547,0.57958 -3.07869,1.31292 -1.04291,1.68746 0.72217,1.68746 3.33333,0 z M 72.003068,312.84548 C 66.619423,295.28279 64.432243,251.13444 67.725993,226.51215 78.382988,146.84624 124.62999,82.636229 197.87197,45.815569 c 44.13293,-22.18678 105.65687,-28.71432 155.33334,-16.48049 58.19198,14.33095 108.47583,50.11039 141.2557,100.510401 7.28565,11.20192 14.07763,23.07982 14.07763,24.61916 0,0.29538 -1.65,0.7269 -3.66666,0.95894 -3.28353,0.37781 -4.23099,-0.55337 -9.06717,-8.91143 -14.24164,-24.61294 -28.09749,-41.90846 -47.21893,-58.940901 -46.46173,-41.38583 -107.92043,-61.95385 -168.7139,-56.46248 -56.27414,5.08314 -103.5497,27.72364 -142.71571,68.34726 -31.40289,32.571571 -49.544752,66.632361 -59.260532,111.259841 -6.00182,27.56811 -6.35264,54.47298 -1.10879,85.03394 2.62733,15.31199 2.6392,15.96996 0.31882,17.66666 -3.20041,2.3402 -4.24617,2.22317 -5.1027,-0.57099 z m 254.560552,-4.50867 c 1.72136,-7.94634 6.38315,-16.24227 12.53529,-22.30731 5.68817,-5.60765 10.18871,-8.04305 35.43973,-19.17768 21.78282,-9.6053 30.92948,-29.06443 23.27631,-49.51936 -3.32508,-8.88708 -10.42708,-15.68249 -19.42815,-18.58945 -10.61493,-3.42817 -23.32398,-5.18699 -30.76386,-4.25744 l -6.96228,0.86988 -1.14754,-4.42165 -1.14754,-4.42165 18.08653,-0.37865 c 29.12711,-0.6098 45.24355,3.19267 56.85612,13.41446 9.2985,8.18486 13.10877,16.73097 12.99389,29.14414 -0.15892,17.17056 -8.6131,30.6331 -25.06908,39.92028 -4.04858,2.28488 -7.36106,4.38841 -7.36106,4.67452 0,0.2861 2.7938,1.22368 6.20845,2.08349 l 6.20846,1.56331 -8.60732,4.33927 -8.60731,4.33926 -8.60114,-2.00403 c -16.18644,-3.77137 -29.90643,2.48228 -37.28644,16.9954 -3.12693,6.14923 -4.65222,7.71029 -8.87846,9.08664 -2.8066,0.91401 -5.9162,1.99396 -6.91022,2.39987 -1.41367,0.57728 -1.5954,-0.2402 -0.83438,-3.7533 z M 88.763828,296.84548 c -8.79518,-46.34065 -2.2093,-93.18106 19.262532,-137 27.19206,-55.49256 83.66695,-99.564521 144.40159,-112.688311 37.04618,-8.00509 79.72167,-5.73045 114.28345,6.0914 33.61968,11.49962 64.2213,31.50076 89.26995,58.346631 10.69293,11.46014 33.53301,44.41811 31.87629,45.99712 -0.5308,0.50591 -1.64472,-0.22034 -2.47538,-1.61388 -0.83065,-1.39353 -5.47452,-8.59353 -10.3197,-16 C 443.82859,92.233409 395.347,59.584329 338.84232,48.243309 c -19.27931,-3.86954 -57.47241,-4.23965 -76.30369,-0.73942 -44.2571,8.22621 -80.44064,27.35702 -112.75525,59.615461 -30.80881,30.75525 -49.27883,65.20656 -58.750172,109.58406 -3.87196,18.14191 -4.28,61.3608 -0.72599,76.89591 2.60634,11.39268 2.55922,10.91283 1.07155,10.91283 -0.63792,0 -1.81465,-3.45 -2.61494,-7.66667 z M 195.60318,258.57057 c -0.072,-2.54105 0.55898,-5.16186 1.40224,-5.82403 3.268,-2.56616 63.81703,-28.33387 64.66921,-27.52112 0.25813,0.24619 -0.49187,1.81992 -1.66666,3.49718 -1.1748,1.67726 -2.136,4.01745 -2.136,5.20041 0,1.49765 -5.56768,4.51206 -18.33334,9.92588 -10.08333,4.27627 -22.83333,9.99588 -28.33333,12.71024 -15.10385,7.45407 -15.44659,7.49826 -15.60212,2.01144 z m 136.93546,-3.87233 c 0,-2.46431 -0.33519,-7.41431 -0.74487,-11 l -0.74487,-6.51943 2.89979,6.29854 c 2.11771,4.59981 2.66191,7.56652 2.01779,11 -1.1208,5.97433 -3.42784,6.123 -3.42784,0.22089 z m -47.95099,-22.09452 c -1.0206,-1.90702 -0.62942,-5.3725 1.50781,-13.35776 l 2.88596,-10.78268 3.11195,2.92352 c 4.52063,4.24691 4.17653,11.25562 -0.89642,18.25863 -2.2046,3.04336 -4.28349,5.53338 -4.61976,5.53338 -0.33626,0 -1.23156,-1.15879 -1.98954,-2.57509 z m 219.06143,-29.42491 c -1.58926,-5.5 -3.50881,-11.98984 -4.26566,-14.42188 -1.01482,-3.26099 -0.97428,-4.28795 0.15442,-3.91172 1.80048,0.60016 7.87015,21.78256 7.35468,25.66694 -0.19463,1.46666 -1.65418,-1.83334 -3.24344,-7.33334 z m -168.44377,4.60046 c 0,-0.40309 0.91541,-2.50309 2.03424,-4.66667 l 2.03424,-3.93379 h 12.85465 c 7.07006,0 12.53514,0.31951 12.14464,0.71002 -0.56203,0.56202 -27.42107,8.62332 -28.73163,8.62332 -0.18488,0 -0.33614,-0.3298 -0.33614,-0.73288 z m 181.12393,-11.93379 c -0.45176,-1.46667 -1.27464,-3.86667 -1.82862,-5.33333 -0.93645,-2.47927 -0.84529,-2.51468 1.29716,-0.50396 1.31251,1.23182 2.0996,3.52744 1.82861,5.33334 -0.43769,2.91686 -0.5415,2.95719 -1.29715,0.50395 z"
       id="path1" />
  </g>
</svg>
